<svg id="visual" viewBox="0 0 900 600" width="900" height="600" xmlns="http://www.w3.org/2000/svg" xmlns:xlink="http://www.w3.org/1999/xlink" version="1.1"><rect x="0" y="0" width="900" height="600" fill="#e8bf81"></rect><path d="M339 600L322 600L322 568L313 568L313 537L336 537L336 505L261 505L261 474L646 474L646 442L559 442L559 411L391 411L391 379L246 379L246 347L346 347L346 316L556 316L556 284L513 284L513 253L295 253L295 221L437 221L437 189L274 189L274 158L301 158L301 126L550 126L550 95L338 95L338 63L529 63L529 32L555 32L555 0L900 0L900 32L900 32L900 63L900 63L900 95L900 95L900 126L900 126L900 158L900 158L900 189L900 189L900 221L900 221L900 253L900 253L900 284L900 284L900 316L900 316L900 347L900 347L900 379L900 379L900 411L900 411L900 442L900 442L900 474L900 474L900 505L900 505L900 537L900 537L900 568L900 568L900 600L900 600Z" fill="#e9b12f"></path><path d="M600 600L760 600L760 568L638 568L638 537L480 537L480 505L542 505L542 474L737 474L737 442L423 442L423 411L614 411L614 379L730 379L730 347L511 347L511 316L502 316L502 284L430 284L430 253L768 253L768 221L557 221L557 189L653 189L653 158L471 158L471 126L648 126L648 95L561 95L561 63L777 63L777 32L615 32L615 0L900 0L900 32L900 32L900 63L900 63L900 95L900 95L900 126L900 126L900 158L900 158L900 189L900 189L900 221L900 221L900 253L900 253L900 284L900 284L900 316L900 316L900 347L900 347L900 379L900 379L900 411L900 411L900 442L900 442L900 474L900 474L900 505L900 505L900 537L900 537L900 568L900 568L900 600L900 600Z" fill="#ed9d45"></path><path d="M816 600L853 600L853 568L679 568L679 537L755 537L755 505L612 505L612 474L827 474L827 442L641 442L641 411L598 411L598 379L665 379L665 347L799 347L799 316L599 316L599 284L821 284L821 253L816 253L816 221L578 221L578 189L679 189L679 158L782 158L782 126L623 126L623 95L861 95L861 63L707 63L707 32L654 32L654 0L900 0L900 32L900 32L900 63L900 63L900 95L900 95L900 126L900 126L900 158L900 158L900 189L900 189L900 221L900 221L900 253L900 253L900 284L900 284L900 316L900 316L900 347L900 347L900 379L900 379L900 411L900 411L900 442L900 442L900 474L900 474L900 505L900 505L900 537L900 537L900 568L900 568L900 600L900 600Z" fill="#e98d58"></path></svg>