<svg id="visual" viewBox="0 0 900 600" width="900" height="600" xmlns="http://www.w3.org/2000/svg" xmlns:xlink="http://www.w3.org/1999/xlink" version="1.1"><path d="M0 127L13.7 118C27.3 109 54.7 91 82 78C109.3 65 136.7 57 163.8 63C191 69 218 89 245.2 89C272.3 89 299.7 69 327 61C354.3 53 381.7 57 409 59C436.3 61 463.7 61 491 71C518.3 81 545.7 101 573 106C600.3 111 627.7 101 654.8 88C682 75 709 59 736.2 53C763.3 47 790.7 51 818 51C845.3 51 872.7 47 886.3 45L900 43L900 0L886.3 0C872.7 0 845.3 0 818 0C790.7 0 763.3 0 736.2 0C709 0 682 0 654.8 0C627.7 0 600.3 0 573 0C545.7 0 518.3 0 491 0C463.7 0 436.3 0 409 0C381.7 0 354.3 0 327 0C299.7 0 272.3 0 245.2 0C218 0 191 0 163.8 0C136.7 0 109.3 0 82 0C54.7 0 27.3 0 13.7 0L0 0Z" fill="#e5ebd7"></path><path d="M0 193L13.7 180C27.3 167 54.7 141 82 126C109.3 111 136.7 107 163.8 113C191 119 218 135 245.2 134C272.3 133 299.7 115 327 114C354.3 113 381.7 129 409 135C436.3 141 463.7 137 491 146C518.3 155 545.7 177 573 183C600.3 189 627.7 179 654.8 165C682 151 709 133 736.2 120C763.3 107 790.7 99 818 94C845.3 89 872.7 87 886.3 86L900 85L900 41L886.3 43C872.7 45 845.3 49 818 49C790.7 49 763.3 45 736.2 51C709 57 682 73 654.8 86C627.7 99 600.3 109 573 104C545.7 99 518.3 79 491 69C463.7 59 436.3 59 409 57C381.7 55 354.3 51 327 59C299.7 67 272.3 87 245.2 87C218 87 191 67 163.8 61C136.7 55 109.3 63 82 76C54.7 89 27.3 107 13.7 116L0 125Z" fill="#dbdeb2"></path><path d="M0 385L13.7 374C27.3 363 54.7 341 82 332C109.3 323 136.7 327 163.8 318C191 309 218 287 245.2 269C272.3 251 299.7 237 327 245C354.3 253 381.7 283 409 297C436.3 311 463.7 309 491 306C518.3 303 545.7 299 573 296C600.3 293 627.7 291 654.8 286C682 281 709 273 736.2 268C763.3 263 790.7 261 818 266C845.3 271 872.7 283 886.3 289L900 295L900 83L886.3 84C872.7 85 845.3 87 818 92C790.7 97 763.3 105 736.2 118C709 131 682 149 654.8 163C627.7 177 600.3 187 573 181C545.7 175 518.3 153 491 144C463.7 135 436.3 139 409 133C381.7 127 354.3 111 327 112C299.7 113 272.3 131 245.2 132C218 133 191 117 163.8 111C136.7 105 109.3 109 82 124C54.7 139 27.3 165 13.7 178L0 191Z" fill="#d7ce8c"></path><path d="M0 499L13.7 495C27.3 491 54.7 483 82 480C109.3 477 136.7 479 163.8 458C191 437 218 393 245.2 365C272.3 337 299.7 325 327 330C354.3 335 381.7 357 409 384C436.3 411 463.7 443 491 437C518.3 431 545.7 387 573 374C600.3 361 627.7 379 654.8 380C682 381 709 365 736.2 358C763.3 351 790.7 353 818 366C845.3 379 872.7 403 886.3 415L900 427L900 293L886.3 287C872.7 281 845.3 269 818 264C790.7 259 763.3 261 736.2 266C709 271 682 279 654.8 284C627.7 289 600.3 291 573 294C545.7 297 518.3 301 491 304C463.7 307 436.3 309 409 295C381.7 281 354.3 251 327 243C299.7 235 272.3 249 245.2 267C218 285 191 307 163.8 316C136.7 325 109.3 321 82 330C54.7 339 27.3 361 13.7 372L0 383Z" fill="#d8bd66"></path><path d="M0 601L13.7 601C27.3 601 54.7 601 82 601C109.3 601 136.7 601 163.8 601C191 601 218 601 245.2 601C272.3 601 299.7 601 327 601C354.3 601 381.7 601 409 601C436.3 601 463.7 601 491 601C518.3 601 545.7 601 573 601C600.3 601 627.7 601 654.8 601C682 601 709 601 736.2 601C763.3 601 790.7 601 818 601C845.3 601 872.7 601 886.3 601L900 601L900 425L886.3 413C872.7 401 845.3 377 818 364C790.7 351 763.3 349 736.2 356C709 363 682 379 654.8 378C627.7 377 600.3 359 573 372C545.7 385 518.3 429 491 435C463.7 441 436.3 409 409 382C381.7 355 354.3 333 327 328C299.7 323 272.3 335 245.2 363C218 391 191 435 163.8 456C136.7 477 109.3 475 82 478C54.7 481 27.3 489 13.7 493L0 497Z" fill="#dda941"></path></svg>