<svg id="visual" viewBox="0 0 900 600" width="900" height="600" xmlns="http://www.w3.org/2000/svg" xmlns:xlink="http://www.w3.org/1999/xlink" version="1.1"><path d="M0 79L82 67L164 55L245 85L327 73L409 67L491 43L573 85L655 73L736 91L818 37L900 97L900 0L818 0L736 0L655 0L573 0L491 0L409 0L327 0L245 0L164 0L82 0L0 0Z" fill="#ccb900"></path><path d="M0 331L82 217L164 193L245 187L327 289L409 217L491 169L573 301L655 229L736 175L818 157L900 289L900 95L818 35L736 89L655 71L573 83L491 41L409 65L327 71L245 83L164 53L82 65L0 77Z" fill="#d3ac01"></path><path d="M0 403L82 265L164 265L245 259L327 343L409 319L491 271L573 379L655 331L736 265L818 277L900 349L900 287L818 155L736 173L655 227L573 299L491 167L409 215L327 287L245 185L164 191L82 215L0 329Z" fill="#d89f0c"></path><path d="M0 481L82 451L164 391L245 445L327 427L409 457L491 415L573 469L655 439L736 475L818 451L900 487L900 347L818 275L736 263L655 329L573 377L491 269L409 317L327 341L245 257L164 263L82 263L0 401Z" fill="#dc9118"></path><path d="M0 559L82 487L164 457L245 499L327 505L409 523L491 463L573 505L655 511L736 505L818 511L900 523L900 485L818 449L736 473L655 437L573 467L491 413L409 455L327 425L245 443L164 389L82 449L0 479Z" fill="#dd8422"></path><path d="M0 601L82 601L164 601L245 601L327 601L409 601L491 601L573 601L655 601L736 601L818 601L900 601L900 521L818 509L736 503L655 509L573 503L491 461L409 521L327 503L245 497L164 455L82 485L0 557Z" fill="#dd772c"></path></svg>