<svg id="visual" viewBox="0 0 900 600" width="900" height="600" xmlns="http://www.w3.org/2000/svg" xmlns:xlink="http://www.w3.org/1999/xlink" version="1.1"><rect x="0" y="0" width="900" height="600" fill="#ef8a36"></rect><path d="M0 372L60 372L60 407L120 407L120 417L180 417L180 415L240 415L240 380L300 380L300 367L360 367L360 415L420 415L420 433L480 433L480 347L540 347L540 405L600 405L600 346L660 346L660 408L720 408L720 345L780 345L780 406L840 406L840 386L900 386L900 348L900 601L900 601L840 601L840 601L780 601L780 601L720 601L720 601L660 601L660 601L600 601L600 601L540 601L540 601L480 601L480 601L420 601L420 601L360 601L360 601L300 601L300 601L240 601L240 601L180 601L180 601L120 601L120 601L60 601L60 601L0 601Z" fill="#fcaf3c"></path><path d="M0 403L60 403L60 451L120 451L120 391L180 391L180 442L240 442L240 417L300 417L300 461L360 461L360 390L420 390L420 428L480 428L480 415L540 415L540 405L600 405L600 397L660 397L660 389L720 389L720 401L780 401L780 392L840 392L840 463L900 463L900 456L900 601L900 601L840 601L840 601L780 601L780 601L720 601L720 601L660 601L660 601L600 601L600 601L540 601L540 601L480 601L480 601L420 601L420 601L360 601L360 601L300 601L300 601L240 601L240 601L180 601L180 601L120 601L120 601L60 601L60 601L0 601Z" fill="#fec36f"></path><path d="M0 482L60 482L60 482L120 482L120 490L180 490L180 441L240 441L240 491L300 491L300 468L360 468L360 449L420 449L420 502L480 502L480 468L540 468L540 463L600 463L600 467L660 467L660 459L720 459L720 480L780 480L780 489L840 489L840 472L900 472L900 479L900 601L900 601L840 601L840 601L780 601L780 601L720 601L720 601L660 601L660 601L600 601L600 601L540 601L540 601L480 601L480 601L420 601L420 601L360 601L360 601L300 601L300 601L240 601L240 601L180 601L180 601L120 601L120 601L60 601L60 601L0 601Z" fill="#ffd69f"></path><path d="M0 517L60 517L60 487L120 487L120 516L180 516L180 481L240 481L240 481L300 481L300 520L360 520L360 497L420 497L420 508L480 508L480 488L540 488L540 510L600 510L600 503L660 503L660 534L720 534L720 505L780 505L780 500L840 500L840 518L900 518L900 511L900 601L900 601L840 601L840 601L780 601L780 601L720 601L720 601L660 601L660 601L600 601L600 601L540 601L540 601L480 601L480 601L420 601L420 601L360 601L360 601L300 601L300 601L240 601L240 601L180 601L180 601L120 601L120 601L60 601L60 601L0 601Z" fill="#ffeacf"></path><path d="M0 538L60 538L60 544L120 544L120 554L180 554L180 554L240 554L240 554L300 554L300 556L360 556L360 573L420 573L420 552L480 552L480 565L540 565L540 557L600 557L600 543L660 543L660 558L720 558L720 550L780 550L780 534L840 534L840 536L900 536L900 548L900 601L900 601L840 601L840 601L780 601L780 601L720 601L720 601L660 601L660 601L600 601L600 601L540 601L540 601L480 601L480 601L420 601L420 601L360 601L360 601L300 601L300 601L240 601L240 601L180 601L180 601L120 601L120 601L60 601L60 601L0 601Z" fill="#ffffff"></path></svg>