<svg id="visual" viewBox="0 0 900 600" width="900" height="600" xmlns="http://www.w3.org/2000/svg" xmlns:xlink="http://www.w3.org/1999/xlink" version="1.1"><rect x="0" y="0" width="900" height="600" fill="#f39136"></rect><defs><linearGradient id="grad1_0" x1="33.3%" y1="100%" x2="100%" y2="0%"><stop offset="20%" stop-color="#f7e17f" stop-opacity="1"></stop><stop offset="80%" stop-color="#f7e17f" stop-opacity="1"></stop></linearGradient></defs><defs><linearGradient id="grad1_1" x1="33.3%" y1="100%" x2="100%" y2="0%"><stop offset="20%" stop-color="#f7e17f" stop-opacity="1"></stop><stop offset="80%" stop-color="#f6d570" stop-opacity="1"></stop></linearGradient></defs><defs><linearGradient id="grad1_2" x1="33.3%" y1="100%" x2="100%" y2="0%"><stop offset="20%" stop-color="#f6c862" stop-opacity="1"></stop><stop offset="80%" stop-color="#f6d570" stop-opacity="1"></stop></linearGradient></defs><defs><linearGradient id="grad1_3" x1="33.3%" y1="100%" x2="100%" y2="0%"><stop offset="20%" stop-color="#f6c862" stop-opacity="1"></stop><stop offset="80%" stop-color="#f5bb54" stop-opacity="1"></stop></linearGradient></defs><defs><linearGradient id="grad1_4" x1="33.3%" y1="100%" x2="100%" y2="0%"><stop offset="20%" stop-color="#f4ad49" stop-opacity="1"></stop><stop offset="80%" stop-color="#f5bb54" stop-opacity="1"></stop></linearGradient></defs><defs><linearGradient id="grad1_5" x1="33.3%" y1="100%" x2="100%" y2="0%"><stop offset="20%" stop-color="#f4ad49" stop-opacity="1"></stop><stop offset="80%" stop-color="#f49f3e" stop-opacity="1"></stop></linearGradient></defs><defs><linearGradient id="grad1_6" x1="33.3%" y1="100%" x2="100%" y2="0%"><stop offset="20%" stop-color="#f39136" stop-opacity="1"></stop><stop offset="80%" stop-color="#f49f3e" stop-opacity="1"></stop></linearGradient></defs><defs><linearGradient id="grad2_0" x1="0%" y1="100%" x2="66.7%" y2="0%"><stop offset="20%" stop-color="#f7e17f" stop-opacity="1"></stop><stop offset="80%" stop-color="#f7e17f" stop-opacity="1"></stop></linearGradient></defs><defs><linearGradient id="grad2_1" x1="0%" y1="100%" x2="66.7%" y2="0%"><stop offset="20%" stop-color="#f6d570" stop-opacity="1"></stop><stop offset="80%" stop-color="#f7e17f" stop-opacity="1"></stop></linearGradient></defs><defs><linearGradient id="grad2_2" x1="0%" y1="100%" x2="66.7%" y2="0%"><stop offset="20%" stop-color="#f6d570" stop-opacity="1"></stop><stop offset="80%" stop-color="#f6c862" stop-opacity="1"></stop></linearGradient></defs><defs><linearGradient id="grad2_3" x1="0%" y1="100%" x2="66.7%" y2="0%"><stop offset="20%" stop-color="#f5bb54" stop-opacity="1"></stop><stop offset="80%" stop-color="#f6c862" stop-opacity="1"></stop></linearGradient></defs><defs><linearGradient id="grad2_4" x1="0%" y1="100%" x2="66.7%" y2="0%"><stop offset="20%" stop-color="#f5bb54" stop-opacity="1"></stop><stop offset="80%" stop-color="#f4ad49" stop-opacity="1"></stop></linearGradient></defs><defs><linearGradient id="grad2_5" x1="0%" y1="100%" x2="66.7%" y2="0%"><stop offset="20%" stop-color="#f49f3e" stop-opacity="1"></stop><stop offset="80%" stop-color="#f4ad49" stop-opacity="1"></stop></linearGradient></defs><defs><linearGradient id="grad2_6" x1="0%" y1="100%" x2="66.7%" y2="0%"><stop offset="20%" stop-color="#f49f3e" stop-opacity="1"></stop><stop offset="80%" stop-color="#f39136" stop-opacity="1"></stop></linearGradient></defs><g transform="translate(900, 600)"><path d="M-503 0C-472.6 -31.7 -442.3 -63.4 -436.8 -99.7C-431.3 -136 -450.6 -176.9 -446.9 -215.2C-443.1 -253.5 -416.3 -289.3 -378.4 -301.8C-340.5 -314.2 -291.5 -303.4 -271.2 -340.1C-250.9 -376.8 -259.3 -461.1 -234.7 -487.3C-210.1 -513.4 -152.5 -481.4 -107.9 -472.8C-63.3 -464.3 -31.7 -479.1 0 -494L0 0Z" fill="#f3983a"></path><path d="M-431.1 0C-405.1 -27.2 -379.1 -54.3 -374.4 -85.4C-369.7 -116.6 -386.2 -151.6 -383 -184.5C-379.8 -217.3 -356.8 -248 -324.3 -258.7C-291.9 -269.3 -249.9 -260 -232.5 -291.5C-215.1 -323 -222.2 -395.3 -201.1 -417.7C-180.1 -440.1 -130.7 -412.6 -92.5 -405.3C-54.3 -397.9 -27.1 -410.7 0 -423.4L0 0Z" fill="#f4a643"></path><path d="M-359.3 0C-337.6 -22.6 -315.9 -45.3 -312 -71.2C-308 -97.1 -321.9 -126.3 -319.2 -153.7C-316.5 -181.1 -297.4 -206.7 -270.3 -215.5C-243.2 -224.4 -208.2 -216.7 -193.7 -242.9C-179.2 -269.2 -185.2 -329.4 -167.6 -348.1C-150 -366.7 -108.9 -343.9 -77.1 -337.7C-45.2 -331.6 -22.6 -342.2 0 -352.9L0 0Z" fill="#f5b44e"></path><path d="M-287.4 0C-270.1 -18.1 -252.7 -36.2 -249.6 -57C-246.4 -77.7 -257.5 -101.1 -255.4 -123C-253.2 -144.9 -237.9 -165.3 -216.2 -172.4C-194.6 -179.6 -166.6 -173.4 -155 -194.3C-143.4 -215.3 -148.1 -263.5 -134.1 -278.4C-120 -293.4 -87.2 -275.1 -61.7 -270.2C-36.2 -265.3 -18.1 -273.8 0 -282.3L0 0Z" fill="#f5c15b"></path><path d="M-215.6 0C-202.6 -13.6 -189.5 -27.2 -187.2 -42.7C-184.8 -58.3 -193.1 -75.8 -191.5 -92.2C-189.9 -108.7 -178.4 -124 -162.2 -129.3C-145.9 -134.7 -124.9 -130 -116.2 -145.8C-107.5 -161.5 -111.1 -197.6 -100.6 -208.8C-90 -220 -65.4 -206.3 -46.3 -202.6C-27.1 -199 -13.6 -205.3 0 -211.7L0 0Z" fill="#f6ce69"></path><path d="M-143.7 0C-135 -9.1 -126.4 -18.1 -124.8 -28.5C-123.2 -38.9 -128.7 -50.5 -127.7 -61.5C-126.6 -72.4 -118.9 -82.7 -108.1 -86.2C-97.3 -89.8 -83.3 -86.7 -77.5 -97.2C-71.7 -107.7 -74.1 -131.8 -67 -139.2C-60 -146.7 -43.6 -137.5 -30.8 -135.1C-18.1 -132.6 -9 -136.9 0 -141.1L0 0Z" fill="#f7db77"></path><path d="M-71.9 0C-67.5 -4.5 -63.2 -9.1 -62.4 -14.2C-61.6 -19.4 -64.4 -25.3 -63.8 -30.7C-63.3 -36.2 -59.5 -41.3 -54.1 -43.1C-48.6 -44.9 -41.6 -43.3 -38.7 -48.6C-35.8 -53.8 -37 -65.9 -33.5 -69.6C-30 -73.3 -21.8 -68.8 -15.4 -67.5C-9 -66.3 -4.5 -68.4 0 -70.6L0 0Z" fill="#f7e17f"></path></g><g transform="translate(0, 0)"><path d="M537 0C524.9 38.9 512.8 77.7 494.3 112.8C475.8 147.9 450.8 179.2 425.3 204.8C399.7 230.4 373.4 250.4 358.1 285.6C342.7 320.7 338.2 371.1 308.6 387C279 402.9 224.4 384.4 187.4 389.2C150.5 394 131.3 422.2 103 451.4C74.7 480.6 37.4 510.7 0 540.8L0 0Z" fill="#f3983a"></path><path d="M460.3 0C449.9 33.3 439.5 66.6 423.7 96.7C407.8 126.8 386.4 153.6 364.5 175.5C342.6 197.5 320.1 214.6 306.9 244.8C293.8 274.9 289.9 318.1 264.5 331.7C239.2 345.4 192.3 329.5 160.7 333.6C129 337.8 112.6 361.9 88.3 386.9C64.1 411.9 32 437.7 0 463.6L0 0Z" fill="#f4a643"></path><path d="M383.6 0C374.9 27.8 366.3 55.5 353.1 80.6C339.8 105.6 322 128 303.8 146.3C285.5 164.6 266.7 178.9 255.8 204C244.8 229.1 241.6 265.1 220.4 276.4C199.3 287.8 160.3 274.6 133.9 278C107.5 281.5 93.8 301.6 73.6 322.4C53.4 343.3 26.7 364.8 0 386.3L0 0Z" fill="#f5b44e"></path><path d="M306.9 0C299.9 22.2 293 44.4 282.5 64.5C271.9 84.5 257.6 102.4 243 117C228.4 131.7 213.4 143.1 204.6 163.2C195.8 183.3 193.3 212.1 176.4 221.1C159.5 230.2 128.2 219.7 107.1 222.4C86 225.2 75 241.3 58.9 257.9C42.7 274.6 21.4 291.8 0 309L0 0Z" fill="#f5c15b"></path><path d="M230.1 0C225 16.7 219.8 33.3 211.8 48.4C203.9 63.4 193.2 76.8 182.3 87.8C171.3 98.8 160 107.3 153.5 122.4C146.9 137.5 144.9 159 132.3 165.9C119.6 172.7 96.2 164.7 80.3 166.8C64.5 168.9 56.3 181 44.2 193.5C32 206 16 218.9 0 231.8L0 0Z" fill="#f6ce69"></path><path d="M153.4 0C150 11.1 146.5 22.2 141.2 32.2C135.9 42.3 128.8 51.2 121.5 58.5C114.2 65.8 106.7 71.5 102.3 81.6C97.9 91.6 96.6 106 88.2 110.6C79.7 115.1 64.1 109.8 53.6 111.2C43 112.6 37.5 120.6 29.4 129C21.4 137.3 10.7 145.9 0 154.5L0 0Z" fill="#f7db77"></path><path d="M76.7 0C75 5.6 73.3 11.1 70.6 16.1C68 21.1 64.4 25.6 60.8 29.3C57.1 32.9 53.3 35.8 51.2 40.8C49 45.8 48.3 53 44.1 55.3C39.9 57.6 32.1 54.9 26.8 55.6C21.5 56.3 18.8 60.3 14.7 64.5C10.7 68.7 5.3 73 0 77.3L0 0Z" fill="#f7e17f"></path></g></svg>