<svg id="visual" viewBox="0 0 900 600" width="900" height="600" xmlns="http://www.w3.org/2000/svg" xmlns:xlink="http://www.w3.org/1999/xlink" version="1.1"><rect x="0" y="0" width="900" height="600" fill="#d38a32"></rect><path d="M0 446L129 421L257 364L386 426L514 365L643 361L771 399L900 433L900 601L771 601L643 601L514 601L386 601L257 601L129 601L0 601Z" fill="#f5730a"></path><path d="M0 422L129 431L257 415L386 426L514 395L643 438L771 432L900 459L900 601L771 601L643 601L514 601L386 601L257 601L129 601L0 601Z" fill="#ea6310"></path><path d="M0 440L129 505L257 445L386 470L514 439L643 494L771 469L900 499L900 601L771 601L643 601L514 601L386 601L257 601L129 601L0 601Z" fill="#df5414"></path><path d="M0 501L129 481L257 541L386 538L514 498L643 536L771 502L900 526L900 601L771 601L643 601L514 601L386 601L257 601L129 601L0 601Z" fill="#d34417"></path><path d="M0 573L129 550L257 547L386 529L514 536L643 568L771 560L900 571L900 601L771 601L643 601L514 601L386 601L257 601L129 601L0 601Z" fill="#c73319"></path></svg>