<svg id="visual" viewBox="0 0 900 600" width="900" height="600" xmlns="http://www.w3.org/2000/svg" xmlns:xlink="http://www.w3.org/1999/xlink" version="1.1"><g stroke-width="1" stroke-linejoin="bevel"><path d="M493 298L460 408L577 312Z" fill="#edb651" stroke="#edb651"></path><path d="M460 408L592 421L577 312Z" fill="#eda94e" stroke="#eda94e"></path><path d="M460 408L534 464L592 421Z" fill="#eda94e" stroke="#eda94e"></path><path d="M368 325L420 415L460 408Z" fill="#e8d760" stroke="#e8d760"></path><path d="M460 408L396 481L534 464Z" fill="#ebca58" stroke="#ebca58"></path><path d="M503 600L577 487L534 464Z" fill="#edaf4f" stroke="#edaf4f"></path><path d="M534 464L577 487L592 421Z" fill="#ebca58" stroke="#ebca58"></path><path d="M592 421L662 318L577 312Z" fill="#ec9c4d" stroke="#ec9c4d"></path><path d="M507 170L408 227L493 298Z" fill="#ec9c4d" stroke="#ec9c4d"></path><path d="M716 414L662 318L592 421Z" fill="#eda94e" stroke="#eda94e"></path><path d="M493 298L368 325L460 408Z" fill="#edaf4f" stroke="#edaf4f"></path><path d="M261 428L396 481L420 415Z" fill="#eb954d" stroke="#eb954d"></path><path d="M420 415L396 481L460 408Z" fill="#eb954d" stroke="#eb954d"></path><path d="M577 487L672 460L592 421Z" fill="#edb651" stroke="#edb651"></path><path d="M507 170L493 298L577 312Z" fill="#ecc355" stroke="#ecc355"></path><path d="M493 298L408 227L368 325Z" fill="#ead05c" stroke="#ead05c"></path><path d="M672 460L716 414L592 421Z" fill="#ec9c4d" stroke="#ec9c4d"></path><path d="M601 179L507 170L577 312Z" fill="#eda24d" stroke="#eda24d"></path><path d="M662 318L601 179L577 312Z" fill="#edbd53" stroke="#edbd53"></path><path d="M733 170L601 179L662 318Z" fill="#edaf4f" stroke="#edaf4f"></path><path d="M408 227L332 300L368 325Z" fill="#ead05c" stroke="#ead05c"></path><path d="M368 325L261 428L420 415Z" fill="#ead05c" stroke="#ead05c"></path><path d="M396 481L503 600L534 464Z" fill="#edbd53" stroke="#edbd53"></path><path d="M577 487L673 600L672 460Z" fill="#edaf4f" stroke="#edaf4f"></path><path d="M601 179L500 134L507 170Z" fill="#ebca58" stroke="#ebca58"></path><path d="M507 170L500 134L408 227Z" fill="#ebca58" stroke="#ebca58"></path><path d="M408 227L327 181L332 300Z" fill="#ebca58" stroke="#ebca58"></path><path d="M503 600L568 600L577 487Z" fill="#eda24d" stroke="#eda24d"></path><path d="M672 460L817 462L716 414Z" fill="#ecc355" stroke="#ecc355"></path><path d="M336 600L406 600L396 481Z" fill="#eda24d" stroke="#eda24d"></path><path d="M396 481L406 600L503 600Z" fill="#eda24d" stroke="#eda24d"></path><path d="M332 300L261 428L368 325Z" fill="#edb651" stroke="#edb651"></path><path d="M362 122L327 181L408 227Z" fill="#edb651" stroke="#edb651"></path><path d="M332 300L212 373L261 428Z" fill="#ec9c4d" stroke="#ec9c4d"></path><path d="M568 600L673 600L577 487Z" fill="#ebca58" stroke="#ebca58"></path><path d="M261 428L274 505L396 481Z" fill="#edaf4f" stroke="#edaf4f"></path><path d="M795 264L733 170L662 318Z" fill="#eb954d" stroke="#eb954d"></path><path d="M601 179L560 60L500 134Z" fill="#ecc355" stroke="#ecc355"></path><path d="M716 414L795 264L662 318Z" fill="#ecc355" stroke="#ecc355"></path><path d="M821 379L795 264L716 414Z" fill="#e8d760" stroke="#e8d760"></path><path d="M500 134L362 122L408 227Z" fill="#edaf4f" stroke="#edaf4f"></path><path d="M817 462L821 379L716 414Z" fill="#eb954d" stroke="#eb954d"></path><path d="M274 505L336 600L396 481Z" fill="#edaf4f" stroke="#edaf4f"></path><path d="M807 600L817 462L672 460Z" fill="#ebca58" stroke="#ebca58"></path><path d="M217 207L332 300L327 181Z" fill="#eb954d" stroke="#eb954d"></path><path d="M217 207L220 314L332 300Z" fill="#edbd53" stroke="#edbd53"></path><path d="M261 428L173 510L274 505Z" fill="#edbd53" stroke="#edbd53"></path><path d="M739 119L560 60L601 179Z" fill="#edaf4f" stroke="#edaf4f"></path><path d="M500 134L363 0L362 122Z" fill="#edb651" stroke="#edb651"></path><path d="M220 314L212 373L332 300Z" fill="#eda24d" stroke="#eda24d"></path><path d="M772 121L739 119L733 170Z" fill="#ec9c4d" stroke="#ec9c4d"></path><path d="M733 170L739 119L601 179Z" fill="#ead05c" stroke="#ead05c"></path><path d="M900 236L806 168L795 264Z" fill="#ec9c4d" stroke="#ec9c4d"></path><path d="M795 264L806 168L733 170Z" fill="#eda94e" stroke="#eda94e"></path><path d="M273 126L217 207L327 181Z" fill="#eda94e" stroke="#eda94e"></path><path d="M220 314L139 262L212 373Z" fill="#e8d760" stroke="#e8d760"></path><path d="M291 0L273 126L362 122Z" fill="#e8d760" stroke="#e8d760"></path><path d="M362 122L273 126L327 181Z" fill="#edaf4f" stroke="#edaf4f"></path><path d="M806 168L772 121L733 170Z" fill="#eda24d" stroke="#eda24d"></path><path d="M566 0L538 0L560 60Z" fill="#eb954d" stroke="#eb954d"></path><path d="M673 600L807 600L672 460Z" fill="#eb954d" stroke="#eb954d"></path><path d="M566 0L560 60L661 0Z" fill="#e8d760" stroke="#e8d760"></path><path d="M560 60L538 0L500 134Z" fill="#edb651" stroke="#edb651"></path><path d="M661 0L560 60L739 119Z" fill="#ebca58" stroke="#ebca58"></path><path d="M817 462L900 394L821 379Z" fill="#ecc355" stroke="#ecc355"></path><path d="M821 379L900 312L795 264Z" fill="#ec9c4d" stroke="#ec9c4d"></path><path d="M900 512L900 394L817 462Z" fill="#eda94e" stroke="#eda94e"></path><path d="M94 388L173 510L212 373Z" fill="#e8d760" stroke="#e8d760"></path><path d="M212 373L173 510L261 428Z" fill="#eb954d" stroke="#eb954d"></path><path d="M274 505L183 600L336 600Z" fill="#ecc355" stroke="#ecc355"></path><path d="M900 394L900 312L821 379Z" fill="#edbd53" stroke="#edbd53"></path><path d="M771 0L661 0L739 119Z" fill="#eda24d" stroke="#eda24d"></path><path d="M900 111L771 0L772 121Z" fill="#edaf4f" stroke="#edaf4f"></path><path d="M772 121L771 0L739 119Z" fill="#ecc355" stroke="#ecc355"></path><path d="M900 312L900 236L795 264Z" fill="#e8d760" stroke="#e8d760"></path><path d="M114 203L139 262L217 207Z" fill="#ead05c" stroke="#ead05c"></path><path d="M217 207L139 262L220 314Z" fill="#eda24d" stroke="#eda24d"></path><path d="M538 0L363 0L500 134Z" fill="#eda24d" stroke="#eda24d"></path><path d="M273 126L212 109L217 207Z" fill="#edaf4f" stroke="#edaf4f"></path><path d="M807 600L900 512L817 462Z" fill="#ecc355" stroke="#ecc355"></path><path d="M291 0L212 109L273 126Z" fill="#eda94e" stroke="#eda94e"></path><path d="M130 600L183 600L173 510Z" fill="#edaf4f" stroke="#edaf4f"></path><path d="M173 510L183 600L274 505Z" fill="#edaf4f" stroke="#edaf4f"></path><path d="M139 262L94 388L212 373Z" fill="#edbd53" stroke="#edbd53"></path><path d="M363 0L291 0L362 122Z" fill="#eb954d" stroke="#eb954d"></path><path d="M807 600L900 600L900 512Z" fill="#e8d760" stroke="#e8d760"></path><path d="M212 109L114 203L217 207Z" fill="#edaf4f" stroke="#edaf4f"></path><path d="M139 262L0 339L94 388Z" fill="#edb651" stroke="#edb651"></path><path d="M61 103L114 203L212 109Z" fill="#edaf4f" stroke="#edaf4f"></path><path d="M900 111L772 121L806 168Z" fill="#eda24d" stroke="#eda24d"></path><path d="M900 236L900 111L806 168Z" fill="#edb651" stroke="#edb651"></path><path d="M82 488L130 600L173 510Z" fill="#eb954d" stroke="#eb954d"></path><path d="M0 402L82 488L94 388Z" fill="#eda94e" stroke="#eda94e"></path><path d="M94 388L82 488L173 510Z" fill="#eda24d" stroke="#eda24d"></path><path d="M291 0L169 0L212 109Z" fill="#e8d760" stroke="#e8d760"></path><path d="M900 111L900 0L771 0Z" fill="#edbd53" stroke="#edbd53"></path><path d="M0 190L0 339L114 203Z" fill="#edbd53" stroke="#edbd53"></path><path d="M114 203L0 339L139 262Z" fill="#edb651" stroke="#edb651"></path><path d="M82 488L0 538L130 600Z" fill="#ec9c4d" stroke="#ec9c4d"></path><path d="M0 339L0 402L94 388Z" fill="#ecc355" stroke="#ecc355"></path><path d="M169 0L61 103L212 109Z" fill="#ead05c" stroke="#ead05c"></path><path d="M0 402L0 538L82 488Z" fill="#eda24d" stroke="#eda24d"></path><path d="M61 103L0 190L114 203Z" fill="#eda24d" stroke="#eda24d"></path><path d="M169 0L100 0L61 103Z" fill="#edbd53" stroke="#edbd53"></path><path d="M61 103L0 74L0 190Z" fill="#edbd53" stroke="#edbd53"></path><path d="M0 538L0 600L130 600Z" fill="#eda94e" stroke="#eda94e"></path><path d="M100 0L0 74L61 103Z" fill="#ec9c4d" stroke="#ec9c4d"></path><path d="M100 0L0 0L0 74Z" fill="#ead05c" stroke="#ead05c"></path></g></svg>