<svg id="visual" viewBox="0 0 900 600" width="900" height="600" xmlns="http://www.w3.org/2000/svg" xmlns:xlink="http://www.w3.org/1999/xlink" version="1.1"><rect x="0" y="0" width="900" height="600" fill="#eb892d"></rect><defs><linearGradient id="grad1_0" x1="33.3%" y1="0%" x2="100%" y2="100%"><stop offset="20%" stop-color="#f4d858" stop-opacity="1"></stop><stop offset="80%" stop-color="#f4d858" stop-opacity="1"></stop></linearGradient></defs><defs><linearGradient id="grad1_1" x1="33.3%" y1="0%" x2="100%" y2="100%"><stop offset="20%" stop-color="#f4d858" stop-opacity="1"></stop><stop offset="80%" stop-color="#f4cb4d" stop-opacity="1"></stop></linearGradient></defs><defs><linearGradient id="grad1_2" x1="33.3%" y1="0%" x2="100%" y2="100%"><stop offset="20%" stop-color="#f3be44" stop-opacity="1"></stop><stop offset="80%" stop-color="#f4cb4d" stop-opacity="1"></stop></linearGradient></defs><defs><linearGradient id="grad1_3" x1="33.3%" y1="0%" x2="100%" y2="100%"><stop offset="20%" stop-color="#f3be44" stop-opacity="1"></stop><stop offset="80%" stop-color="#f2b13c" stop-opacity="1"></stop></linearGradient></defs><defs><linearGradient id="grad1_4" x1="33.3%" y1="0%" x2="100%" y2="100%"><stop offset="20%" stop-color="#f0a435" stop-opacity="1"></stop><stop offset="80%" stop-color="#f2b13c" stop-opacity="1"></stop></linearGradient></defs><defs><linearGradient id="grad1_5" x1="33.3%" y1="0%" x2="100%" y2="100%"><stop offset="20%" stop-color="#f0a435" stop-opacity="1"></stop><stop offset="80%" stop-color="#ee9730" stop-opacity="1"></stop></linearGradient></defs><defs><linearGradient id="grad1_6" x1="33.3%" y1="0%" x2="100%" y2="100%"><stop offset="20%" stop-color="#eb892d" stop-opacity="1"></stop><stop offset="80%" stop-color="#ee9730" stop-opacity="1"></stop></linearGradient></defs><defs><linearGradient id="grad2_0" x1="0%" y1="0%" x2="66.7%" y2="100%"><stop offset="20%" stop-color="#f4d858" stop-opacity="1"></stop><stop offset="80%" stop-color="#f4d858" stop-opacity="1"></stop></linearGradient></defs><defs><linearGradient id="grad2_1" x1="0%" y1="0%" x2="66.7%" y2="100%"><stop offset="20%" stop-color="#f4cb4d" stop-opacity="1"></stop><stop offset="80%" stop-color="#f4d858" stop-opacity="1"></stop></linearGradient></defs><defs><linearGradient id="grad2_2" x1="0%" y1="0%" x2="66.7%" y2="100%"><stop offset="20%" stop-color="#f4cb4d" stop-opacity="1"></stop><stop offset="80%" stop-color="#f3be44" stop-opacity="1"></stop></linearGradient></defs><defs><linearGradient id="grad2_3" x1="0%" y1="0%" x2="66.7%" y2="100%"><stop offset="20%" stop-color="#f2b13c" stop-opacity="1"></stop><stop offset="80%" stop-color="#f3be44" stop-opacity="1"></stop></linearGradient></defs><defs><linearGradient id="grad2_4" x1="0%" y1="0%" x2="66.7%" y2="100%"><stop offset="20%" stop-color="#f2b13c" stop-opacity="1"></stop><stop offset="80%" stop-color="#f0a435" stop-opacity="1"></stop></linearGradient></defs><defs><linearGradient id="grad2_5" x1="0%" y1="0%" x2="66.7%" y2="100%"><stop offset="20%" stop-color="#ee9730" stop-opacity="1"></stop><stop offset="80%" stop-color="#f0a435" stop-opacity="1"></stop></linearGradient></defs><defs><linearGradient id="grad2_6" x1="0%" y1="0%" x2="66.7%" y2="100%"><stop offset="20%" stop-color="#ee9730" stop-opacity="1"></stop><stop offset="80%" stop-color="#eb892d" stop-opacity="1"></stop></linearGradient></defs><g transform="translate(900, 0)"><path d="M0 513.8C-44.5 443 -89 372.2 -143.5 346.5C-198 320.7 -262.5 339.9 -323.9 323.9C-385.2 307.8 -443.5 256.5 -474.7 196.6C-505.8 136.8 -509.8 68.4 -513.8 0L0 0Z" fill="#ec902f"></path><path d="M0 440.4C-38.1 379.7 -76.3 319.1 -123 297C-169.7 274.9 -225 291.3 -277.6 277.6C-330.2 263.8 -380.2 219.8 -406.9 168.5C-433.6 117.2 -437 58.6 -440.4 0L0 0Z" fill="#ef9d33"></path><path d="M0 367C-31.8 316.4 -63.6 265.9 -102.5 247.5C-141.4 229.1 -187.5 242.8 -231.3 231.3C-275.2 219.9 -316.8 183.2 -339.1 140.4C-361.3 97.7 -364.1 48.8 -367 0L0 0Z" fill="#f1aa39"></path><path d="M0 293.6C-25.4 253.1 -50.9 212.7 -82 198C-113.1 183.2 -150 194.2 -185.1 185.1C-220.1 175.9 -253.5 146.6 -271.2 112.4C-289 78.2 -291.3 39.1 -293.6 0L0 0Z" fill="#f2b840"></path><path d="M0 220.2C-19.1 189.9 -38.1 159.5 -61.5 148.5C-84.9 137.4 -112.5 145.7 -138.8 138.8C-165.1 131.9 -190.1 109.9 -203.4 84.3C-216.8 58.6 -218.5 29.3 -220.2 0L0 0Z" fill="#f3c549"></path><path d="M0 146.8C-12.7 126.6 -25.4 106.4 -41 99C-56.6 91.6 -75 97.1 -92.5 92.5C-110.1 87.9 -126.7 73.3 -135.6 56.2C-144.5 39.1 -145.7 19.5 -146.8 0L0 0Z" fill="#f4d253"></path><path d="M0 73.4C-6.4 63.3 -12.7 53.2 -20.5 49.5C-28.3 45.8 -37.5 48.6 -46.3 46.3C-55 44 -63.4 36.6 -67.8 28.1C-72.3 19.5 -72.8 9.8 -73.4 0L0 0Z" fill="#f4d858"></path></g><g transform="translate(0, 600)"><path d="M0 -513.8C69.6 -490.1 139.2 -466.5 172.6 -416.7C206 -366.9 203.3 -291 257.4 -257.4C311.5 -223.8 422.5 -232.5 474.7 -196.6C526.9 -160.8 520.3 -80.4 513.8 0L0 0Z" fill="#ec902f"></path><path d="M0 -440.4C59.6 -420.1 119.3 -399.8 147.9 -357.1C176.6 -314.5 174.2 -249.4 220.6 -220.6C267 -191.8 362.1 -199.3 406.9 -168.5C451.6 -137.8 446 -68.9 440.4 0L0 0Z" fill="#ef9d33"></path><path d="M0 -367C49.7 -350.1 99.4 -333.2 123.3 -297.6C147.2 -262.1 145.2 -207.9 183.8 -183.8C222.5 -159.8 301.8 -166 339.1 -140.4C376.4 -114.8 371.7 -57.4 367 0L0 0Z" fill="#f1aa39"></path><path d="M0 -293.6C39.8 -280.1 79.5 -266.5 98.6 -238.1C117.7 -209.6 116.2 -166.3 147.1 -147.1C178 -127.9 241.4 -132.8 271.2 -112.4C301.1 -91.9 297.3 -45.9 293.6 0L0 0Z" fill="#f2b840"></path><path d="M0 -220.2C29.8 -210.1 59.6 -199.9 74 -178.6C88.3 -157.2 87.1 -124.7 110.3 -110.3C133.5 -95.9 181.1 -99.6 203.4 -84.3C225.8 -68.9 223 -34.5 220.2 0L0 0Z" fill="#f3c549"></path><path d="M0 -146.8C19.9 -140 39.8 -133.3 49.3 -119C58.9 -104.8 58.1 -83.1 73.5 -73.5C89 -63.9 120.7 -66.4 135.6 -56.2C150.5 -45.9 148.7 -23 146.8 0L0 0Z" fill="#f4d253"></path><path d="M0 -73.4C9.9 -70 19.9 -66.6 24.7 -59.5C29.4 -52.4 29 -41.6 36.8 -36.8C44.5 -32 60.4 -33.2 67.8 -28.1C75.3 -23 74.3 -11.5 73.4 0L0 0Z" fill="#f4d858"></path></g></svg>